PathFileType	4	(X/Y/Z)	8_coords_data.trc
DataRate	CameraRate	NumFrames	NumMarkers	Units	OrigDataRate	OrigDataStartFrame	OrigNumFrames
30.0	30.0	5	21	m	30.0	39	48
Frame#	Time	THUMB_TIP	THUMB_IP	THUMB_MCP	THUMB_CMC	INDEX_TIP	INDEX_DIP	INDEX_PIP	INDEX_MCP	MIDDLE_TIP	MIDDLE_DIP	MIDDLE_PIP	MIDDLE_MCP	RING_TIP	RING_DIP	RING_PIP	RING_MCP	PINKY_TIP	PINKY_DIP	PINKY_PIP	PINKY_MCP	WRIST
X1	Y1	Z1	X2	Y2	Z2	X3	Y3	Z3	X4	Y4	Z4	X5	Y5	Z5	X6	Y6	Z6	X7	Y7	Z7	X8	Y8	Z8	X9	Y9	Z9	X10	Y10	Z10	X11	Y11	Z11	X12	Y12	Z12	X13	Y13	Z13	X14	Y14	Z14	X15	Y15	Z15	X16	Y16	Z16	X17	Y17	Z17	X18	Y18	Z18	X19	Y19	Z19	X20	Y20	Z20	X21	Y21	Z21
38	1.2666666666666666	-0.03782590103149414	-0.0530359992980957	0.9682230224609375	-0.041484901428222656	-0.03180690002441406	0.983416015625	-0.04770289993286133	-0.011303099632263183	1.0003400268554687	-0.05320669937133789	0.01802039909362793	1.01272998046875	-0.031521799087524414	-0.018073499679565428	0.8869959716796875	-0.03921720123291016	-0.014988400459289552	0.9072630004882812	-0.048679901123046876	-0.011278400421142578	0.9268560180664063	-0.05876490020751953	-0.00160640001296997	0.961218994140625	-0.03308079910278321	0.007538370132446289	0.8711859741210938	-0.041281299591064455	0.009514880180358887	0.8934990234375	-0.05363629913330078	0.012298800468444825	0.9179080200195312	-0.06255680084228515	0.018369600296020507	0.9549920043945312	-0.03776250076293945	0.031803499221801756	0.8767080078125	-0.046667701721191404	0.03358300018310547	0.8980070190429688	-0.057008201599121094	0.035086700439453125	0.921052978515625	-0.06120840072631836	0.03710660171508789	0.9554420166015625	-0.04752080154418945	0.0603922004699707	0.8967680053710938	-0.05125680160522461	0.059205501556396485	0.9167509765625	-0.05514490127563477	0.057528900146484374	0.93368798828125	-0.05753329849243164	0.05462850189208984	0.9598079833984375	-0.07810130310058594	0.04377899932861328	1.0281700439453125
39	1.3	-0.043852100372314455	-0.047710899353027345	0.965843994140625	-0.04567110061645508	-0.026764699935913086	0.9820590209960938	-0.049875301361083986	-0.00665503978729248	1.0000399780273437	-0.05358309936523437	0.02250279998779297	1.0134600219726562	-0.03843349838256836	-0.010542200088500977	0.8853629760742188	-0.04469670104980469	-0.007837409973144532	0.906208984375	-0.052854400634765625	-0.0044425601959228525	0.9264580078125	-0.061004798889160154	0.004386340141296387	0.9615609741210938	-0.04058599853515625	0.015018400192260742	0.8700380249023437	-0.04701350021362305	0.016694900512695312	0.8929920043945313	-0.05757659912109375	0.019226600646972656	0.9182369995117188	-0.06433689880371093	0.024531200408935548	0.9560479736328125	-0.04384149932861328	0.03861780166625976	0.8766259765625	-0.05124800109863281	0.04023369979858398	0.8985590209960937	-0.060150199890136716	0.04161380004882813	0.9221500244140625	-0.06254719924926758	0.04306219863891601	0.9568369750976562	-0.050137901306152345	0.06666410064697266	0.8982479858398438	-0.0532755012512207	0.06530159759521484	0.9182429809570313	-0.05666500091552734	0.06351620101928711	0.9352249755859375	-0.05825859832763672	0.06033499908447266	0.9613660278320313	-0.07738619995117188	0.04846910095214844	1.029780029296875
40	1.3333333333333333	-0.04843399810791016	-0.04366770172119141	0.9664959716796875	-0.04887310028076172	-0.02252549934387207	0.9827160034179687	-0.05181539916992187	-0.00223809003829956	1.00072998046875	-0.05438750076293945	0.02701230049133301	1.0143300170898437	-0.04324570083618164	-0.005719850063323975	0.8851610107421874	-0.04821229934692383	-0.00289188003540039	0.9063870239257813	-0.05536249923706055	0.000801562011241912	0.9269849853515625	-0.062347900390625	0.009578519821166993	0.962197021484375	-0.04573989868164063	0.02010960006713867	0.8698350219726563	-0.05064400100708008	0.02181959915161133	0.8933140258789063	-0.05984209823608398	0.024608200073242187	0.9190369873046875	-0.06499590301513672	0.02985569953918457	0.9567639770507812	-0.047231201171875	0.04363370132446289	0.8767730102539063	-0.05351380157470703	0.04540579986572266	0.8992219848632812	-0.06123490142822265	0.04692890167236328	0.9232630004882812	-0.06279959869384766	0.04838069915771484	0.9577100219726562	-0.05001399993896485	0.07155000305175781	0.8993909912109375	-0.0531150016784668	0.07026450347900391	0.9194299926757813	-0.056468399047851565	0.06858110046386719	0.9364110107421875	-0.05798820114135742	0.06543869781494141	0.9625449829101562	-0.07740350341796876	0.05319540023803711	1.03081005859375
41	1.3666666666666667	-0.05082040023803711	-0.039204498291015626	0.9670540161132812	-0.050538700103759764	-0.018031700134277344	0.9832050170898438	-0.052773101806640625	0.002318670034408569	1.0013900146484376	-0.05496139907836914	0.03151390075683594	1.014989990234375	-0.04772249984741211	-0.001461480021476745	0.8851690063476563	-0.051733100891113284	0.001512560009956359	0.9066209716796875	-0.05794359970092773	0.005280670166015625	0.9275260009765625	-0.06348529815673828	0.014133099555969239	0.9628359985351562	-0.05053839874267578	0.024459299087524415	0.86981201171875	-0.0543109016418457	0.026197099685668947	0.893489013671875	-0.062396099090576175	0.029089399337768555	0.9196220092773437	-0.06628679656982422	0.03439500045776367	0.9576820068359375	-0.05042240142822266	0.04735829925537109	0.8771539916992187	-0.05597560119628906	0.04930390167236328	0.8998280029296875	-0.06297890090942383	0.05112289810180664	0.9239869995117187	-0.06386529922485351	0.05289229965209961	0.9585490112304688	-0.05329919815063477	0.07459120178222656	0.8995599975585937	-0.055649898529052735	0.07376640319824218	0.9197880249023438	-0.058311199188232424	0.07245330047607422	0.9368870239257813	-0.05883169937133789	0.06992880249023438	0.9631539916992188	-0.07768609619140625	0.057686500549316407	1.03172998046875
42	1.4	-0.052485000610351565	-0.034851398468017575	0.9679450073242187	-0.05162870025634766	-0.013409899711608888	0.9838410034179688	-0.05333250045776367	0.006997650146484375	1.0019199829101562	-0.05521329879760742	0.03637250137329102	1.01525	-0.051738998413085935	0.002708549976348877	0.885364013671875	-0.05508819961547851	0.005652259826660156	0.906843994140625	-0.060667098999023436	0.009498419761657715	0.9279240112304687	-0.06510009765625	0.01839929962158203	0.9635380249023437	-0.05489920043945312	0.027994600296020508	0.8699409790039062	-0.05803239822387695	0.029934099197387695	0.8936680297851562	-0.0654384994506836	0.03297579956054687	0.919969970703125	-0.06799680328369141	0.03858530044555664	0.9580689697265625	-0.05439820098876953	0.050652099609375	0.8770980224609375	-0.059550300598144534	0.05287779998779297	0.8997429809570312	-0.06597170257568359	0.05482339859008789	0.9240850219726563	-0.06583319854736328	0.057020999908447265	0.9590770263671875	-0.057295398712158205	0.07760659790039062	0.8991710205078125	-0.05909489822387695	0.07716049957275391	0.919510986328125	-0.06124900054931641	0.07621939849853515	0.9367379760742187	-0.060875598907470706	0.07413960266113281	0.963135986328125	-0.07788140106201172	0.06230120086669922	1.0321600341796875
